<svg xmlns="http://www.w3.org/2000/svg" viewBox="0 0 1600 900" width="1600" height="900">
  <defs>
    <linearGradient id="bg" x1="0%" y1="0%" x2="100%" y2="100%">
      <stop offset="0%" style="stop-color:#EFF6FF"/>
      <stop offset="100%" style="stop-color:#DBEAFE"/>
    </linearGradient>
  </defs>
  <rect width="1600" height="900" fill="url(#bg)"/>
  <!-- Subtle grid -->
  <path d="M0 100 H1600 M0 200 H1600 M0 300 H1600 M0 400 H1600 M0 500 H1600 M0 600 H1600 M0 700 H1600 M0 800 H1600
           M100 0 V900 M200 0 V900 M300 0 V900 M400 0 V900 M500 0 V900 M600 0 V900 M700 0 V900
           M800 0 V900 M900 0 V900 M1000 0 V900 M1100 0 V900 M1200 0 V900 M1300 0 V900 M1400 0 V900 M1500 0 V900"
        stroke="#BFDBFE" stroke-width="1" fill="none" opacity="0.6"/>
  <!-- Decorative circles -->
  <circle cx="1350" cy="200" r="180" fill="#2563EB" opacity="0.04"/>
  <circle cx="250" cy="700" r="140" fill="#2563EB" opacity="0.04"/>
  <!-- Brand watermark -->
  <text x="800" y="420" font-family="system-ui,-apple-system,sans-serif" font-size="100"
        font-weight="900" letter-spacing="12" text-anchor="middle" fill="#2563EB" opacity="0.12">PARTICLE</text>
  <rect x="550" y="432" width="500" height="7" rx="3.5" fill="#2563EB" opacity="0.15"/>
  <text x="800" y="528" font-family="system-ui,-apple-system,sans-serif" font-size="100"
        font-weight="900" letter-spacing="12" text-anchor="middle" fill="#2563EB" opacity="0.12">POST</text>
</svg>
